<?xml version="1.0" standalone="no"?>
<!DOCTYPE svg PUBLIC "-//W3C//DTD SVG 20010904//EN"
 "http://www.w3.org/TR/2001/REC-SVG-20010904/DTD/svg10.dtd">
<svg version="1.0" xmlns="http://www.w3.org/2000/svg"
 width="450.000000pt" height="450.000000pt" viewBox="0 0 450.000000 450.000000"
 preserveAspectRatio="xMidYMid meet">
<metadata>
Created by potrace 1.11, written by Peter Selinger 2001-2013
</metadata>
<g transform="translate(0.000000,450.000000) scale(0.100000,-0.100000)"
fill="#000000" stroke="none">
<path d="M2167 4121 c-58 -28 -111 -95 -222 -281 -60 -102 -114 -192 -120
-202 -5 -10 -95 -158 -200 -330 -104 -172 -192 -317 -194 -323 -2 -5 -7 -12
-10 -15 -4 -3 -19 -25 -34 -50 -47 -80 -44 -77 -62 -55 -9 11 -13 13 -9 5 6
-12 4 -12 -12 1 -10 9 -24 15 -30 12 -7 -2 -10 6 -9 22 2 14 -1 23 -6 19 -5
-3 -7 -9 -4 -14 10 -16 -11 -19 -48 -8 -20 6 -34 15 -31 20 4 5 -4 4 -15 -4
-18 -11 -23 -11 -31 1 -6 11 -12 12 -22 3 -8 -6 -19 -7 -28 -2 -8 5 -17 7 -21
4 -14 -8 -69 -11 -69 -4 0 13 -32 21 -44 12 -6 -5 -18 -10 -26 -10 -8 -1 -27
-3 -43 -5 -23 -4 -25 -2 -15 10 10 13 6 12 -26 -1 -47 -19 -50 -20 -43 -3 3 8
1 20 -5 28 -8 11 -9 11 -4 -3 7 -22 -25 -33 -84 -29 -54 4 -62 4 -122 -1 -26
-3 -45 -1 -42 4 6 9 -32 5 -42 -5 -4 -3 -15 -2 -25 4 -15 8 -17 6 -13 -6 5
-13 1 -15 -21 -11 -15 3 -25 2 -21 -1 3 -4 -2 -16 -11 -27 -16 -18 -16 -19 -1
-8 15 12 17 11 15 -8 -1 -15 -6 -20 -19 -17 -10 3 -16 1 -12 -4 3 -5 11 -9 17
-9 9 0 12 -86 12 -352 0 -337 -1 -353 -19 -356 -11 -3 -16 0 -11 7 3 6 10 9
14 7 4 -3 7 8 7 24 0 16 -3 27 -8 24 -4 -3 -8 -1 -8 5 0 5 5 12 10 14 6 3 5 4
-2 3 -7 -1 -14 -12 -14 -24 -1 -12 3 -19 7 -16 14 9 10 -6 -6 -23 -18 -17 -11
-33 13 -33 16 0 17 -28 17 -364 0 -310 -2 -363 -14 -358 -9 3 -12 1 -7 -6 3
-6 -2 -15 -11 -21 -10 -6 -13 -11 -6 -11 6 0 15 4 18 10 11 18 21 11 23 -16 2
-30 -15 -67 -28 -59 -5 3 -12 0 -16 -6 -5 -8 -3 -9 6 -4 22 14 11 -6 -157
-285 -187 -313 -194 -327 -200 -399 -6 -80 23 -126 102 -166 l60 -30 690 -2
c380 -2 699 -3 710 -4 11 0 95 0 187 1 92 1 172 -1 178 -5 5 -3 10 -3 10 2 0
6 81 9 100 3 3 -1 21 -1 40 -1 19 1 525 3 1125 4 l1090 2 57 28 c68 33 98 75
103 144 5 69 -16 117 -140 322 -60 100 -124 207 -140 236 -17 30 -36 60 -43
67 -7 7 -12 17 -12 24 0 7 -6 15 -12 18 -7 4 -3 4 8 2 49 -9 48 -44 47 869 -1
471 -3 858 -6 861 -3 3 -20 -16 -38 -41 -19 -26 -35 -41 -37 -35 -2 6 -15 -5
-28 -24 -14 -20 -29 -36 -34 -36 -6 0 -10 -5 -10 -11 0 -6 -6 -16 -12 -24 -15
-15 -51 -61 -72 -90 -14 -19 -15 -19 -35 -1 -12 11 -21 16 -21 13 0 -3 9 -14
19 -24 19 -18 19 -18 0 -41 -10 -13 -22 -21 -27 -18 -4 2 -14 1 -22 -4 -11 -7
-11 -12 -2 -23 10 -12 9 -16 -3 -21 -8 -3 -14 -10 -13 -14 2 -5 -9 -23 -24
-40 -14 -17 -23 -34 -20 -38 4 -5 -1 -2 -11 5 -12 10 -21 11 -28 4 -8 -8 -7
-13 2 -18 8 -5 10 -4 5 3 -4 7 -2 12 4 12 7 0 9 -7 6 -16 -3 -9 -6 -18 -6 -21
0 -4 -9 2 -20 12 -11 10 -20 13 -20 7 0 -7 5 -12 10 -12 21 0 9 -30 -37 -91
-52 -72 -64 -82 -77 -69 -6 6 -14 10 -19 10 -5 0 1 -8 14 -19 l23 -18 -23 -12
c-12 -7 -20 -15 -17 -18 3 -4 1 -12 -6 -20 -9 -11 -14 -11 -28 2 -14 12 -20
13 -26 4 -4 -7 -3 -10 4 -5 6 3 16 -2 22 -13 7 -14 7 -22 0 -26 -13 -8 -40 13
-40 30 0 7 -7 18 -15 25 -9 7 -13 15 -11 18 3 2 -1 10 -8 17 -7 8 -48 71 -90
142 -42 70 -149 247 -238 393 -88 146 -168 279 -178 295 -10 17 -122 203 -250
415 -128 212 -248 410 -266 440 -88 146 -201 202 -307 151z m-1197 -1195 c0
-3 -4 -8 -10 -11 -5 -3 -10 -1 -10 4 0 6 5 11 10 11 6 0 10 -2 10 -4z m2910
-306 c0 -5 -5 -10 -11 -10 -5 0 -7 5 -4 10 3 6 8 10 11 10 2 0 4 -4 4 -10z
m-2970 -102 c0 -4 5 -8 11 -8 5 0 7 5 4 10 -3 6 1 10 10 10 9 0 14 -4 11 -8
-2 -4 4 -8 14 -8 10 0 16 4 14 8 -3 4 2 8 11 8 10 0 13 -5 9 -12 -6 -10 -5
-10 7 -2 18 15 117 10 132 -5 9 -9 7 -10 -8 -5 -18 7 -19 6 -5 -11 8 -10 10
-16 3 -12 -7 5 -14 -3 -18 -22 -3 -16 -13 -35 -21 -42 -8 -6 -14 -15 -14 -20
0 -15 -122 -209 -132 -209 -5 0 -7 -4 -4 -8 8 -13 -32 -72 -48 -72 -8 0 -16 7
-20 15 -3 8 -1 15 3 15 5 0 12 -6 14 -12 4 -10 6 -10 6 0 1 8 -8 16 -18 19
-16 4 -18 10 -11 34 5 16 5 29 1 29 -12 0 -8 43 4 52 7 5 7 8 0 8 -11 0 -13
119 -2 137 4 7 3 14 -2 17 -10 6 -8 57 3 74 4 7 1 12 -6 12 -10 0 -9 3 1 9 17
11 51 10 51 -1z"/>
<path d="M1035 2510 c-3 -5 -1 -10 4 -10 6 0 11 5 11 10 0 6 -2 10 -4 10 -3 0
-8 -4 -11 -10z"/>
<path d="M1076 2495 c-16 -25 -16 -25 2 -14 10 6 19 18 19 25 0 19 -2 18 -21
-11z"/>
<path d="M886 2502 c-3 -5 1 -9 9 -9 8 0 12 4 9 9 -3 4 -7 8 -9 8 -2 0 -6 -4
-9 -8z"/>
<path d="M930 2486 c0 -2 7 -7 16 -10 8 -3 12 -2 9 4 -6 10 -25 14 -25 6z"/>
<path d="M593 3025 c0 -8 4 -12 9 -9 5 3 6 10 3 15 -9 13 -12 11 -12 -6z"/>
<path d="M655 3011 c-3 -5 -2 -12 3 -15 5 -3 9 1 9 9 0 17 -3 19 -12 6z"/>
<path d="M935 3011 c-3 -5 -2 -12 3 -15 5 -3 9 1 9 9 0 17 -3 19 -12 6z"/>
<path d="M705 2980 c-3 -6 1 -7 9 -4 18 7 21 14 7 14 -6 0 -13 -4 -16 -10z"/>
<path d="M1110 2975 c5 -7 6 -16 2 -21 -4 -5 -3 -5 2 -1 15 12 15 34 0 34 -9
0 -11 -4 -4 -12z"/>
<path d="M755 2971 c-3 -5 -2 -12 3 -15 5 -3 9 1 9 9 0 17 -3 19 -12 6z"/>
<path d="M600 2951 c-7 -15 -7 -22 2 -27 7 -4 10 -4 6 1 -4 4 -3 16 3 26 5 11
7 19 5 19 -3 0 -10 -9 -16 -19z"/>
<path d="M667 2950 c3 -11 9 -20 15 -20 5 0 4 9 -2 20 -6 11 -12 20 -14 20 -2
0 -2 -9 1 -20z"/>
<path d="M867 2952 c10 -7 17 -19 15 -25 -2 -7 0 -9 4 -4 18 17 10 42 -13 42
-22 0 -22 -1 -6 -13z"/>
<path d="M936 2955 c-3 -9 -11 -13 -17 -9 -8 5 -9 3 -4 -5 6 -10 11 -9 23 3 9
8 13 18 10 21 -3 3 -8 -1 -12 -10z"/>
<path d="M1031 2949 c5 -10 12 -19 15 -19 3 0 3 4 0 9 -4 5 -1 11 6 13 7 3 3
7 -10 10 -19 5 -20 4 -11 -13z"/>
<path d="M1153 2955 c0 -8 4 -12 9 -9 5 3 6 10 3 15 -9 13 -12 11 -12 -6z"/>
<path d="M575 2950 c-4 -6 -16 -8 -28 -5 -17 5 -19 4 -7 -4 21 -15 37 -13 44
4 6 17 0 20 -9 5z"/>
<path d="M807 2941 c-4 -17 -3 -21 5 -13 5 5 8 16 6 23 -3 8 -7 3 -11 -10z"/>
<path d="M996 2945 c-3 -8 -1 -15 4 -15 6 0 10 7 10 15 0 8 -2 15 -4 15 -2 0
-6 -7 -10 -15z"/>
<path d="M480 2940 c-9 -6 -10 -10 -3 -10 6 0 15 5 18 10 8 12 4 12 -15 0z"/>
<path d="M714 2934 c-18 -15 -18 -15 3 -5 27 14 36 14 28 1 -3 -6 1 -7 10 -3
13 5 14 7 3 14 -18 12 -21 11 -44 -7z"/>
<path d="M1085 2941 c-3 -5 -2 -12 3 -15 5 -3 9 1 9 9 0 17 -3 19 -12 6z"/>
<path d="M1195 2930 c10 -11 20 -20 23 -20 3 0 -3 9 -13 20 -10 11 -20 20 -23
20 -3 0 3 -9 13 -20z"/>
<path d="M1315 2900 c-3 -5 -1 -10 4 -10 6 0 11 5 11 10 0 6 -2 10 -4 10 -3 0
-8 -4 -11 -10z"/>
<path d="M3975 2841 c-3 -5 -2 -12 3 -15 5 -3 9 1 9 9 0 17 -3 19 -12 6z"/>
<path d="M390 2811 c0 -6 4 -13 10 -16 6 -3 7 1 4 9 -7 18 -14 21 -14 7z"/>
<path d="M370 2780 c0 -5 5 -10 10 -10 6 0 10 5 10 10 0 6 -4 10 -10 10 -5 0
-10 -4 -10 -10z"/>
<path d="M3953 2775 c0 -8 4 -15 9 -15 4 0 8 7 8 15 0 8 -4 15 -8 15 -5 0 -9
-7 -9 -15z"/>
<path d="M336 2762 c-3 -5 1 -9 9 -9 8 0 12 4 9 9 -3 4 -7 8 -9 8 -2 0 -6 -4
-9 -8z"/>
<path d="M397 2763 c-9 -9 -9 -43 1 -43 4 0 7 11 7 25 0 14 0 25 -1 25 0 0 -4
-3 -7 -7z"/>
<path d="M3930 2740 c0 -5 5 -10 10 -10 6 0 10 5 10 10 0 6 -4 10 -10 10 -5 0
-10 -4 -10 -10z"/>
<path d="M380 2700 c8 -5 20 -10 25 -10 6 0 3 5 -5 10 -8 5 -19 10 -25 10 -5
0 -3 -5 5 -10z"/>
<path d="M3873 2692 c0 -12 5 -22 9 -22 11 0 10 12 -2 30 -7 12 -9 10 -7 -8z"/>
<path d="M3795 2689 c-4 -6 -5 -12 -2 -15 2 -3 7 2 10 11 7 17 1 20 -8 4z"/>
<path d="M365 2680 c-7 -11 23 -60 37 -60 5 0 -1 10 -12 22 -11 12 -18 28 -16
35 6 15 0 17 -9 3z"/>
<path d="M390 2669 c0 -5 5 -7 10 -4 6 3 10 8 10 11 0 2 -4 4 -10 4 -5 0 -10
-5 -10 -11z"/>
<path d="M3896 2665 c-11 -8 -15 -15 -9 -15 6 0 16 7 23 15 16 19 11 19 -14 0z"/>
<path d="M3840 2655 c-9 -10 -9 -15 -1 -15 6 0 11 5 11 11 0 5 5 7 12 3 7 -4
8 -3 4 4 -9 15 -11 15 -26 -3z"/>
<path d="M336 2638 c3 -5 10 -6 15 -3 13 9 11 12 -6 12 -8 0 -12 -4 -9 -9z"/>
<path d="M3755 2641 c-3 -5 -2 -12 3 -15 5 -3 9 1 9 9 0 17 -3 19 -12 6z"/>
<path d="M3810 2624 c0 -5 6 -18 13 -29 12 -15 15 -16 22 -4 5 8 4 10 0 6 -5
-4 -15 3 -22 15 -7 13 -12 18 -13 12z"/>
<path d="M336 2598 c3 -4 11 -5 19 -1 21 7 19 12 -4 10 -11 0 -18 -5 -15 -9z"/>
<path d="M367 2584 c-10 -13 -23 -21 -29 -18 -7 4 -8 2 -4 -4 8 -14 37 1 55
29 17 28 -1 22 -22 -7z"/>
<path d="M392 2566 c-9 -20 -8 -27 6 -38 15 -12 16 -11 3 5 -7 9 -9 17 -4 17
5 0 9 9 10 20 2 26 -1 25 -15 -4z"/>
<path d="M3808 2579 c18 -20 15 -33 -5 -18 -17 13 -17 13 -3 -5 14 -18 13 -19
-3 -13 -12 5 -16 3 -11 -5 5 -7 2 -9 -9 -5 -9 3 -21 -1 -29 -11 -11 -13 -11
-14 2 -7 8 5 23 10 33 10 10 1 27 10 37 21 20 19 20 19 -3 33 -17 11 -19 11
-9 0z"/>
<path d="M3731 2547 c-13 -21 -12 -21 5 -5 10 10 16 20 13 22 -3 3 -11 -5 -18
-17z"/>
<path d="M335 2520 c-3 -5 -1 -10 4 -10 6 0 11 5 11 10 0 6 -2 10 -4 10 -3 0
-8 -4 -11 -10z"/>
<path d="M365 2520 c-4 -6 -1 -9 7 -8 7 2 12 -2 11 -9 -1 -6 3 -13 11 -16 19
-8 15 19 -5 31 -12 8 -20 8 -24 2z"/>
<path d="M3690 2520 c0 -5 5 -10 11 -10 5 0 7 5 4 10 -3 6 -8 10 -11 10 -2 0
-4 -4 -4 -10z"/>
<path d="M380 2476 c0 -2 8 -10 18 -17 15 -13 16 -12 3 4 -13 16 -21 21 -21
13z"/>
<path d="M3670 2460 c0 -5 5 -10 11 -10 5 0 7 5 4 10 -3 6 -8 10 -11 10 -2 0
-4 -4 -4 -10z"/>
<path d="M380 2442 c10 -21 9 -22 -16 -18 -14 3 -24 2 -20 -1 14 -14 45 -12
57 5 7 9 9 14 5 10 -5 -4 -15 0 -23 10 -13 15 -13 15 -3 -6z"/>
<path d="M3724 2452 c6 -11 -5 -16 -26 -13 -4 0 -5 -6 -2 -14 4 -8 11 -15 17
-15 6 0 7 3 4 7 -4 3 1 11 10 18 13 9 13 14 3 20 -9 5 -11 4 -6 -3z"/>
<path d="M3667 2419 c7 -7 15 -10 18 -7 3 3 -2 9 -12 12 -14 6 -15 5 -6 -5z"/>
<path d="M395 2400 c-4 -6 -10 -8 -14 -6 -4 3 -7 -3 -6 -12 0 -9 5 -17 10 -17
6 0 9 6 7 13 -2 8 1 12 6 8 5 -3 9 1 9 9 0 18 -3 19 -12 5z"/>
<path d="M3658 2395 c8 -14 6 -22 -6 -32 -15 -12 -15 -12 3 -6 18 6 19 5 6
-10 -12 -16 -16 -16 -31 -2 -14 13 -17 13 -17 0 0 -8 4 -12 8 -9 4 2 9 -2 12
-8 3 -10 10 -8 26 6 11 11 19 21 16 24 -2 3 5 13 17 23 11 11 16 19 10 19 -6
0 -14 -5 -17 -11 -5 -6 -12 -4 -22 8 -14 17 -14 17 -5 -2z"/>
<path d="M3559 2358 c-5 -18 -6 -38 -1 -34 7 8 12 36 6 36 -2 0 -4 -1 -5 -2z"/>
<path d="M350 2327 c-12 -21 -12 -21 6 -7 10 8 20 15 22 16 2 1 -1 4 -5 7 -5
3 -15 -4 -23 -16z"/>
<path d="M392 2326 c-9 -20 -8 -27 6 -38 15 -12 16 -11 3 5 -7 9 -9 17 -4 17
5 0 9 9 10 20 2 26 -1 25 -15 -4z"/>
<path d="M3570 2299 c0 -5 5 -7 10 -4 6 3 10 8 10 11 0 2 -4 4 -10 4 -5 0 -10
-5 -10 -11z"/>
<path d="M3594 2285 c-4 -8 -9 -13 -13 -10 -4 2 -8 -2 -8 -10 0 -8 4 -15 9
-15 5 0 6 -5 2 -12 -4 -7 -3 -8 4 -4 6 4 9 13 5 21 -3 8 -1 15 4 15 5 0 10 7
10 15 0 19 -6 19 -13 0z"/>
<path d="M370 2280 c0 -5 4 -10 9 -10 5 0 8 -7 7 -16 0 -9 5 -18 12 -20 7 -1
8 0 2 3 -5 2 -10 9 -10 14 0 6 5 7 10 4 6 -3 10 -2 10 2 0 5 -9 14 -20 21 -12
7 -20 8 -20 2z"/>
<path d="M3535 2269 c-4 -6 -5 -12 -2 -15 2 -3 7 2 10 11 7 17 1 20 -8 4z"/>
<path d="M365 2220 c-3 -5 -1 -10 4 -10 6 0 11 5 11 10 0 6 -2 10 -4 10 -3 0
-8 -4 -11 -10z"/>
<path d="M3540 2216 c0 -2 7 -7 16 -10 8 -3 12 -2 9 4 -6 10 -25 14 -25 6z"/>
<path d="M356 2187 c3 -10 9 -15 12 -12 3 3 0 11 -7 18 -10 9 -11 8 -5 -6z"/>
<path d="M350 2102 c0 -4 10 -9 22 -9 18 -2 20 0 8 7 -18 12 -30 13 -30 2z"/>
<path d="M395 2080 c-4 -6 -10 -8 -14 -6 -4 3 -7 -3 -6 -12 0 -9 5 -17 10 -17
6 0 9 6 7 13 -2 8 1 12 6 8 5 -3 9 1 9 9 0 18 -3 19 -12 5z"/>
<path d="M350 2007 c-12 -21 -12 -21 6 -7 10 8 20 15 22 16 2 1 -1 4 -5 7 -5
3 -15 -4 -23 -16z"/>
<path d="M392 2006 c-9 -20 -8 -27 6 -38 15 -12 16 -11 3 5 -7 9 -9 17 -4 17
5 0 9 9 10 20 2 26 -1 25 -15 -4z"/>
<path d="M370 1960 c0 -5 5 -10 11 -10 8 0 7 -6 -2 -17 -12 -16 -12 -17 2 -6
9 7 19 10 22 6 4 -3 7 -2 7 3 0 5 -9 15 -20 22 -12 7 -20 8 -20 2z"/>
<path d="M381 1911 c-10 -6 -9 -10 3 -14 10 -4 13 -13 9 -24 -3 -10 -3 -15 1
-12 10 9 16 48 7 53 -4 3 -13 1 -20 -3z"/>
<path d="M365 1880 c-7 -11 23 -60 37 -60 5 0 -1 10 -12 22 -11 12 -18 28 -16
35 6 15 0 17 -9 3z"/>
<path d="M336 1838 c3 -5 10 -6 15 -3 13 9 11 12 -6 12 -8 0 -12 -4 -9 -9z"/>
<path d="M336 1798 c3 -4 11 -5 19 -1 21 7 19 12 -4 10 -11 0 -18 -5 -15 -9z"/>
<path d="M379 1803 c0 -5 -2 -16 -4 -26 -2 -11 0 -16 3 -12 4 4 7 10 7 13 0 4
4 13 8 20 5 7 4 12 -2 12 -6 0 -11 -3 -12 -7z"/>
<path d="M381 1751 c-10 -6 -9 -10 3 -14 10 -4 13 -13 9 -24 -3 -10 -3 -15 1
-12 10 9 16 48 7 53 -4 3 -13 1 -20 -3z"/>
<path d="M365 1720 c-7 -11 23 -60 37 -60 5 0 -1 10 -12 22 -11 12 -18 28 -16
35 6 15 0 17 -9 3z"/>
<path d="M336 1678 c3 -5 10 -6 15 -3 13 9 11 12 -6 12 -8 0 -12 -4 -9 -9z"/>
<path d="M336 1638 c3 -4 11 -5 19 -1 21 7 19 12 -4 10 -11 0 -18 -5 -15 -9z"/>
<path d="M375 1629 c-10 -30 -2 -32 12 -3 6 13 7 24 3 24 -5 0 -12 -9 -15 -21z"/>
<path d="M399 1623 c-6 -42 -7 -63 -1 -63 4 0 7 16 8 35 1 31 -4 49 -7 28z"/>
<path d="M354 1572 c-10 -15 -8 -18 10 -19 11 -1 16 1 9 4 -7 2 -9 11 -6 19 7
20 0 18 -13 -4z"/>
<path d="M394 1543 c4 -7 3 -13 -2 -13 -21 0 -21 -30 1 -40 21 -11 21 -11 3 4
-17 14 -15 20 6 17 9 -1 4 27 -7 36 -4 4 -5 2 -1 -4z"/>
<path d="M335 1520 c-3 -5 -1 -10 4 -10 6 0 11 5 11 10 0 6 -2 10 -4 10 -3 0
-8 -4 -11 -10z"/>
<path d="M386 1465 c4 -8 1 -15 -5 -15 -6 0 -11 -5 -11 -11 0 -8 4 -9 13 0 8
6 17 7 22 3 4 -4 2 3 -4 16 -13 25 -23 30 -15 7z"/>
<path d="M384 1415 c-4 -8 -11 -12 -17 -8 -6 4 -7 1 -2 -7 6 -10 11 -10 20 3
7 9 15 14 18 10 4 -3 7 -1 7 5 0 17 -20 15 -26 -3z"/>
<path d="M337 1395 c-4 -8 -3 -16 1 -19 4 -3 9 4 9 15 2 23 -3 25 -10 4z"/>
<path d="M387 1326 c-4 -10 -1 -13 9 -9 15 6 19 23 5 23 -5 0 -11 -7 -14 -14z"/>
</g>
</svg>
